<?xml version="1.0" standalone="no"?>
<!DOCTYPE svg PUBLIC "-//W3C//DTD SVG 20010904//EN"
 "http://www.w3.org/TR/2001/REC-SVG-20010904/DTD/svg10.dtd">
<svg version="1.0" xmlns="http://www.w3.org/2000/svg"
 width="700.000000pt" height="700.000000pt" viewBox="0 0 700.000000 700.000000"
 preserveAspectRatio="xMidYMid meet">
<metadata>
Created by potrace 1.14, written by Peter Selinger 2001-2017
</metadata>
<g transform="translate(0.000000,700.000000) scale(0.100000,-0.100000)"
fill="#000000" stroke="none">
<path d="M0 4790 l0 -2210 3495 0 c3488 0 3495 0 3495 -20 0 -20 -7 -20 -3495
-20 l-3495 0 0 -1270 0 -1270 3500 0 3500 0 0 3500 0 3500 -3500 0 -3500 0 0
-2210z m3500 495 c197 -29 763 -179 2495 -660 l80 -22 1 -44 c1 -30 0 -34 -3
-12 -4 30 -9 34 -56 47 -81 23 -1040 281 -1692 456 -780 208 -854 222 -1150
222 -290 0 -384 -19 -1290 -257 -242 -63 -547 -143 -677 -177 l-237 -62 -4
-35 c-4 -29 -4 -27 -3 8 l1 44 655 179 c1024 279 1123 303 1355 327 119 13
394 5 525 -14z m0 -154 c95 -17 1797 -438 2458 -607 l182 -47 -2 -116 -2 -116
-3 107 -4 107 -37 10 c-110 30 -2253 558 -2397 591 -231 53 -322 65 -515 64
-168 0 -267 -10 -445 -45 -85 -17 -854 -203 -1620 -393 l-210 -52 -6 -115 -5
-114 -2 127 -2 127 40 11 c173 47 1744 432 1815 445 263 50 537 55 755 16z
m-99 -81 c183 -19 251 -34 1691 -389 537 -133 979 -241 982 -241 3 0 6 -4 6
-9 0 -9 -31 -10 -40 -1 -3 3 -52 16 -110 29 -58 13 -126 30 -152 37 l-48 13
-1 -27 -2 -27 -4 27 c-3 16 -12 29 -24 33 -10 3 -28 8 -39 11 -16 4 -20 0 -21
-18 l-2 -23 -4 23 c-2 12 -7 22 -11 23 -15 1 -38 7 -54 14 -15 6 -18 1 -19
-31 l-2 -39 -6 40 c-4 26 -12 41 -23 43 -15 3 -18 -7 -21 -70 l-3 -73 -2 78
c-2 69 -4 77 -21 77 -15 0 -21 -8 -24 -32 -4 -32 -4 -32 -5 5 -2 29 -6 37 -22
37 -16 0 -20 -8 -23 -62 l-3 -63 -2 66 c-2 57 -5 67 -22 72 -17 4 -20 0 -22
-26 l-1 -32 -4 33 c-2 17 -10 33 -16 34 -7 0 -16 2 -22 2 -5 1 -14 4 -20 8 -5
3 -29 9 -52 13 -37 6 -43 4 -44 -12 0 -14 -2 -14 -6 -3 -6 17 -32 40 -45 40
-4 0 -9 -15 -9 -32 l-2 -33 -6 35 c-4 26 -12 36 -28 38 -21 3 -22 -1 -26 -75
l-3 -78 -2 83 c-1 45 -6 82 -11 82 -5 0 -16 3 -25 6 -12 4 -16 0 -17 -17 l-1
-24 -7 25 c-5 18 -16 26 -41 31 -19 3 -45 9 -57 13 -22 7 -23 4 -25 -41 l-1
-48 -6 50 c-5 45 -9 50 -33 53 -24 3 -27 0 -31 -35 l-4 -38 -1 41 c-2 39 -14
54 -43 54 -5 0 -10 -21 -11 -47 l-2 -48 -3 48 c-4 40 -8 49 -29 57 -14 6 -27
10 -30 10 -2 0 -5 -39 -6 -87 l-2 -88 -3 85 c-4 85 -10 100 -45 100 -14 0 -18
-9 -20 -42 l-1 -43 -4 40 c-4 41 -24 65 -55 65 -15 0 -18 -12 -21 -87 l-3 -88
-2 91 c-2 86 -3 92 -24 98 -41 10 -47 7 -51 -31 l-4 -38 -1 43 c-1 23 -5 42
-9 42 -5 0 -18 3 -30 6 -23 6 -23 5 -25 -87 l-2 -94 -3 90 c-2 49 -7 93 -11
96 -4 4 -19 9 -34 13 -27 6 -28 5 -28 -39 0 -25 -4 -45 -10 -45 -5 0 -10 23
-10 50 0 36 -4 50 -14 50 -8 0 -21 3 -29 6 -12 4 -17 -12 -24 -88 l-10 -93 -2
98 c0 53 -5 97 -10 97 -5 0 -22 3 -39 6 -31 6 -31 6 -35 -42 l-3 -49 -2 51
c-2 44 -5 53 -24 58 -56 15 -58 12 -58 -78 0 -47 -4 -88 -10 -91 -6 -4 -10 28
-10 90 l0 96 -30 5 c-44 9 -44 9 -51 -43 l-6 -48 -1 52 c-2 57 -3 58 -49 68
l-33 7 0 -97 c0 -62 -4 -94 -10 -90 -6 3 -10 48 -10 101 0 52 -4 94 -9 94 -5
0 -23 3 -40 6 l-31 7 -2 -49 -1 -49 -4 45 c-4 49 -22 70 -60 70 -21 0 -23 -4
-24 -57 0 -32 -4 -76 -8 -98 -7 -32 -9 -20 -10 61 -1 97 -2 102 -23 108 -51
13 -57 9 -61 -46 l-3 -53 -2 58 c-2 53 -4 57 -26 57 -13 0 -31 3 -40 6 -14 5
-16 -5 -16 -77 0 -46 -5 -91 -10 -99 -7 -10 -10 16 -10 83 0 53 -4 97 -9 97
-5 0 -23 3 -40 6 l-31 7 -2 -54 -2 -54 -3 53 -4 52 -38 0 -38 0 -10 -97 -10
-98 -1 98 -2 97 -40 0 -40 0 -2 -52 -2 -53 -3 53 -4 52 -40 0 -39 0 0 -95 c0
-57 -4 -95 -10 -95 -6 0 -10 39 -10 96 0 84 -2 95 -16 90 -9 -3 -27 -6 -40 -6
-22 0 -24 -4 -26 -52 l-1 -53 -6 50 c-4 31 -11 50 -18 49 -7 -1 -24 -2 -37 -2
-22 -2 -24 -7 -33 -99 l-10 -98 -2 93 -1 93 -37 -3 -38 -3 -6 -55 -6 -55 -1
47 c-2 54 -8 60 -51 52 l-31 -6 -1 -72 c-2 -113 -17 -137 -18 -28 -1 99 -2
101 -58 86 -20 -5 -23 -14 -25 -58 l-2 -51 -3 48 c-4 44 -6 47 -31 47 -15 0
-32 -4 -38 -8 -7 -4 -16 -50 -21 -102 l-10 -95 -2 93 c-1 99 -2 101 -58 86
-20 -5 -23 -14 -25 -58 l-2 -51 -3 48 c-4 50 -11 54 -60 41 -20 -6 -23 -13
-24 -63 0 -31 -4 -74 -8 -96 -7 -33 -9 -24 -10 53 -1 95 -4 102 -45 86 -11 -4
-17 -21 -18 -58 l-2 -51 -3 48 c-4 46 -6 48 -31 45 -27 -3 -27 -4 -33 -98 l-5
-95 -2 93 c-1 50 -5 92 -9 92 -43 -1 -53 -13 -55 -64 l-2 -51 -3 48 c-4 47
-12 54 -47 41 -13 -5 -16 -25 -18 -98 l-2 -91 -3 88 -4 88 -27 -3 c-21 -2 -28
-10 -33 -33 l-7 -30 -1 28 c-1 31 1 30 -66 13 l-50 -13 -6 -49 -6 -49 -1 48
c-2 49 -9 55 -45 35 -12 -6 -33 -12 -47 -12 -22 -1 -26 -6 -31 -51 l-6 -50 -1
48 c-2 47 -7 52 -36 41 -13 -5 -16 -24 -18 -93 l-2 -86 -3 83 c-4 80 -5 82
-28 82 -21 0 -25 -5 -26 -32 -2 -32 -2 -32 -6 -4 -5 29 -7 29 -73 12 -8 -3
-21 -5 -27 -5 -8 -1 -14 -17 -15 -38 l-1 -38 -4 33 c-4 27 -8 33 -26 30 -20
-3 -22 -10 -28 -88 l-5 -85 -2 83 c-1 45 -6 82 -11 82 -29 0 -41 -15 -43 -54
l-1 -41 -4 38 c-4 33 -7 38 -26 35 -20 -3 -22 -10 -28 -88 l-5 -85 -2 83 c-2
74 -4 83 -19 80 -12 -2 -20 -16 -24 -38 l-6 -35 -2 34 c-1 30 -3 33 -23 27
-35 -11 -52 -14 -65 -15 -8 -1 -14 -18 -15 -43 l-1 -43 -4 38 -4 39 -42 -7
c-23 -4 -46 -10 -52 -13 -16 -10 -55 -11 -55 -2 0 5 8 11 18 14 16 5 687 164
1202 285 645 151 935 189 1221 161z m-271 -95 c0 -33 -4 -45 -15 -45 -11 0
-15 12 -15 45 0 33 4 45 15 45 11 0 15 -12 15 -45z m90 0 c0 -25 -4 -45 -10
-45 -5 0 -10 20 -10 45 0 25 5 45 10 45 6 0 10 -20 10 -45z m100 0 c0 -33 -4
-45 -15 -45 -11 0 -15 12 -15 45 0 33 4 45 15 45 11 0 15 -12 15 -45z m-280 6
c0 -16 -3 -36 -6 -45 -12 -31 -24 -16 -24 29 0 33 4 45 15 45 10 0 15 -10 15
-29z m370 -16 c0 -25 -4 -45 -10 -45 -5 0 -10 20 -10 45 0 25 5 45 10 45 6 0
10 -20 10 -45z m-472 -7 c-4 -59 -28 -63 -28 -4 0 35 4 46 16 46 12 0 14 -9
12 -42z m572 -3 c0 -33 -4 -45 -15 -45 -11 0 -15 12 -15 45 0 33 4 45 15 45
11 0 15 -12 15 -45z m-670 -10 c0 -25 -4 -45 -10 -45 -5 0 -10 20 -10 45 0 25
5 45 10 45 6 0 10 -20 10 -45z m760 -11 c0 -24 -4 -44 -10 -44 -5 0 -10 23
-10 51 0 31 4 48 10 44 6 -3 10 -26 10 -51z m-854 -40 c-11 -29 -26 -12 -26
30 0 55 23 70 28 18 2 -19 1 -40 -2 -48z m954 20 c0 -32 -4 -44 -12 -42 -14 5
-23 61 -14 85 11 27 26 2 26 -43z m-1044 24 c-3 -13 -6 -33 -6 -45 0 -13 -4
-23 -10 -23 -5 0 -10 20 -10 45 0 35 4 45 16 45 12 0 15 -6 10 -22z m1142 -41
c-5 -62 -28 -60 -28 2 0 41 3 49 16 44 11 -4 14 -17 12 -46z m-1238 -2 c0 -33
-4 -45 -15 -45 -11 0 -15 11 -15 38 0 21 3 42 7 45 16 16 23 4 23 -38z m-94
-6 c-3 -17 -6 -38 -6 -45 0 -8 -4 -14 -10 -14 -5 0 -10 20 -10 45 0 35 4 45
16 45 13 0 15 -7 10 -31z m1424 -14 c0 -33 -4 -45 -15 -45 -11 0 -15 12 -15
45 0 33 4 45 15 45 11 0 15 -12 15 -45z m-1520 -19 c0 -30 -5 -46 -15 -50 -12
-4 -15 4 -15 38 0 23 3 46 7 49 15 16 23 4 23 -37z m1615 34 c8 -13 -5 -80
-16 -80 -5 0 -9 20 -9 45 0 42 11 58 25 35z m-1705 -55 c0 -25 -4 -45 -10 -45
-11 0 -14 73 -3 83 11 12 13 8 13 -38z m1800 -10 c0 -35 -3 -43 -15 -39 -15 6
-20 49 -9 78 11 28 24 6 24 -39z m-1870 -10 c0 -25 -4 -45 -10 -45 -5 0 -10
20 -10 45 0 25 5 45 10 45 6 0 10 -20 10 -45z m-70 -10 c0 -25 -4 -45 -10 -45
-11 0 -14 73 -3 83 11 12 13 8 13 -38z m2030 0 c0 -25 -4 -45 -10 -45 -5 0
-10 20 -10 45 0 25 5 45 10 45 6 0 10 -20 10 -45z m-2100 -20 c0 -25 -4 -45
-10 -45 -5 0 -10 20 -10 45 0 25 5 45 10 45 6 0 10 -20 10 -45z m2190 0 c0
-25 -4 -45 -10 -45 -5 0 -10 20 -10 45 0 25 5 45 10 45 6 0 10 -20 10 -45z
m-2260 -15 c0 -22 -4 -40 -10 -40 -5 0 -10 18 -10 40 0 22 5 40 10 40 6 0 10
-18 10 -40z m1520 12 c106 -19 865 -176 2109 -437 277 -58 507 -107 509 -110
3 -3 3 -7 1 -9 -2 -3 -542 105 -1199 240 -657 134 -1274 258 -1370 275 -231
40 -423 48 -610 25 -137 -18 -216 -33 -1393 -266 -367 -73 -671 -130 -674
-126 -16 16 -37 11 1167 255 603 123 795 159 930 175 96 11 419 -2 530 -22z
m820 -17 c0 -25 -4 -45 -10 -45 -5 0 -10 20 -10 45 0 25 5 45 10 45 6 0 10
-20 10 -45z m-2410 -12 c-1 -36 -3 -44 -10 -31 -9 14 -3 78 6 78 2 0 4 -21 4
-47z m2490 -9 c0 -28 -4 -43 -10 -39 -5 3 -10 26 -10 51 0 28 4 43 10 39 6 -3
10 -26 10 -51z m-2550 2 c0 -19 -4 -38 -10 -41 -6 -4 -10 10 -10 34 0 23 5 41
10 41 6 0 10 -15 10 -34z m2630 -17 c0 -21 -4 -39 -10 -39 -5 0 -10 21 -10 46
0 27 4 43 10 39 6 -3 10 -24 10 -46z m-2701 -6 l-1 -48 -10 34 c-5 18 -7 40
-4 47 10 27 16 14 15 -33z m2771 -8 c0 -25 -4 -45 -10 -45 -5 0 -10 20 -10 45
0 25 5 45 10 45 6 0 10 -20 10 -45z m-2843 -27 c-2 -13 -4 -3 -4 22 0 25 2 35
4 23 2 -13 2 -33 0 -45z m-60 -10 c-2 -13 -4 -3 -4 22 0 25 2 35 4 23 2 -13 2
-33 0 -45z m2983 16 c0 -19 -4 -34 -10 -34 -5 0 -10 18 -10 41 0 24 4 38 10
34 6 -3 10 -22 10 -41z m-3043 -36 c-2 -13 -4 -3 -4 22 0 25 2 35 4 23 2 -13
2 -33 0 -45z m3113 22 c0 -22 -4 -40 -10 -40 -5 0 -10 18 -10 40 0 22 5 40 10
40 6 0 10 -18 10 -40z m-3170 -10 c0 -22 -4 -40 -10 -40 -5 0 -10 18 -10 40 0
22 5 40 10 40 6 0 10 -18 10 -40z m1620 -745 l0 -785 -75 0 -75 0 0 499 c0
525 -1 537 -47 599 -35 47 -77 65 -135 60 -64 -7 -114 -47 -153 -123 l-30 -59
-3 -488 -3 -488 -69 0 -70 0 0 734 0 734 23 5 c131 32 442 80 587 90 25 2 46
4 48 5 1 1 2 -351 2 -783z m1611 718 c-8 -14 -10 -9 -10 27 1 42 1 43 10 18 7
-18 7 -33 0 -45z m-1322 46 l50 -10 3 -694 c3 -730 3 -735 46 -709 16 10 17
61 20 699 l2 688 38 -7 c20 -3 45 -6 55 -6 16 0 17 -41 17 -726 0 -478 -4
-732 -10 -745 -18 -33 -64 -49 -144 -49 -65 0 -79 3 -103 24 -25 22 -28 32
-35 113 -8 115 -10 1418 -1 1426 8 9 3 9 62 -4z m-1972 -51 c-2 -13 -4 -5 -4
17 -1 22 1 32 4 23 2 -10 2 -28 0 -40z m3363 12 c0 -22 -4 -40 -10 -40 -5 0
-10 18 -10 40 0 22 5 40 10 40 6 0 10 -18 10 -40z m-3423 -32 c-2 -13 -4 -3
-4 22 0 25 2 35 4 23 2 -13 2 -33 0 -45z m3483 -7 c-7 -11 -9 -3 -9 29 1 42 1
43 9 16 6 -17 5 -36 0 -45z m-3543 -3 c-2 -13 -4 -3 -4 22 0 25 2 35 4 23 2
-13 2 -33 0 -45z m520 40 c-3 -8 -6 -5 -6 6 -1 11 2 17 5 13 3 -3 4 -12 1 -19z
m3093 -29 c0 -24 -4 -38 -10 -34 -5 3 -10 22 -10 41 0 19 5 34 10 34 6 0 10
-18 10 -41z m-3673 -21 c-2 -13 -4 -5 -4 17 -1 22 1 32 4 23 2 -10 2 -28 0
-40z m-56 -31 c-8 -8 -11 -1 -11 24 0 46 14 60 18 19 2 -18 -1 -37 -7 -43z
m3786 21 c-2 -13 -4 -5 -4 17 -1 22 1 32 4 23 2 -10 2 -28 0 -40z m-3840 -20
c-2 -13 -4 -3 -4 22 0 25 2 35 4 23 2 -13 2 -33 0 -45z m3902 25 c-1 -34 -2
-35 -9 -13 -11 36 -11 50 0 50 6 0 10 -17 9 -37z m-3952 -20 c-3 -10 -5 -2 -5
17 0 19 2 27 5 18 2 -10 2 -26 0 -35z m2758 25 c1 -1 24 -152 51 -335 26 -183
51 -330 56 -327 4 3 8 149 8 325 0 300 1 320 18 315 9 -2 32 -7 50 -11 l32 -7
0 -709 0 -709 -34 0 c-25 0 -36 5 -39 18 -3 9 -27 165 -54 346 l-48 329 -3
-347 -2 -346 -55 0 -55 0 0 739 0 739 36 -8 c19 -5 37 -10 39 -12z m1252 -35
c-3 -10 -5 -2 -5 17 0 19 2 27 5 18 2 -10 2 -26 0 -35z m-4070 -15 c-2 -13 -4
-5 -4 17 -1 22 1 32 4 23 2 -10 2 -28 0 -40z m4120 0 c-2 -13 -4 -5 -4 17 -1
22 1 32 4 23 2 -10 2 -28 0 -40z m-4170 -10 c-2 -13 -4 -5 -4 17 -1 22 1 32 4
23 2 -10 2 -28 0 -40z m4230 0 c-2 -13 -4 -5 -4 17 -1 22 1 32 4 23 2 -10 2
-28 0 -40z m-4280 -10 c-2 -13 -4 -5 -4 17 -1 22 1 32 4 23 2 -10 2 -28 0 -40z
m4330 0 c-2 -13 -4 -5 -4 17 -1 22 1 32 4 23 2 -10 2 -28 0 -40z m-4150 -20
c-2 -13 -4 -3 -4 22 0 25 2 35 4 23 2 -13 2 -33 0 -45z m1123 -653 l0 -715
-75 0 -75 0 0 699 0 699 73 15 c39 8 73 15 75 16 1 0 2 -321 2 -714z m3077
678 c-3 -10 -5 -4 -5 12 0 17 2 24 5 18 2 -7 2 -21 0 -30z m-1037 -19 c3 -3 6
-314 8 -690 l3 -684 -51 0 -50 0 0 699 0 699 42 -10 c23 -5 45 -11 48 -14z
m1100 6 c0 -5 -2 -10 -4 -10 -3 0 -8 5 -11 10 -3 6 -1 10 4 10 6 0 11 -4 11
-10z m37 -22 c-3 -7 -5 -2 -5 12 0 14 2 19 5 13 2 -7 2 -19 0 -25z m50 -15
c-3 -10 -5 -2 -5 17 0 19 2 27 5 18 2 -10 2 -26 0 -35z m50 -10 c-3 -10 -5 -2
-5 17 0 19 2 27 5 18 2 -10 2 -26 0 -35z m-3547 11 c18 -18 19 -53 26 -681 l7
-663 -72 0 -71 0 0 289 c0 187 -4 292 -10 296 -6 4 -24 4 -40 0 l-30 -7 0
-289 0 -289 -49 0 c-89 0 -81 -66 -81 639 0 691 -4 653 63 688 85 44 221 54
257 17z m2487 2 c2 -2 43 -886 43 -933 0 -15 3 -23 6 -20 6 6 43 738 44 870 0
52 2 57 23 57 12 0 32 -3 45 -6 23 -7 23 -9 18 -103 -3 -53 -15 -339 -27 -636
-11 -297 -22 -550 -25 -562 -4 -21 -10 -23 -79 -23 -41 0 -75 1 -75 3 0 1 -14
301 -30 667 -16 366 -30 673 -30 683 0 15 6 16 43 11 23 -4 43 -8 44 -8z
m1110 -23 c-3 -10 -5 -4 -5 12 0 17 2 24 5 18 2 -7 2 -21 0 -30z m40 -10 c-3
-10 -5 -2 -5 17 0 19 2 27 5 18 2 -10 2 -26 0 -35z m50 -10 c-3 -10 -5 -2 -5
17 0 19 2 27 5 18 2 -10 2 -26 0 -35z m40 -10 c-3 -10 -5 -2 -5 17 0 19 2 27
5 18 2 -10 2 -26 0 -35z m-901 -14 c98 -17 94 -14 94 -74 0 -39 -4 -53 -12
-51 -7 3 -28 7 -45 10 l-33 6 0 -220 0 -219 43 -3 42 -3 3 -52 3 -53 -45 0
-46 0 0 -260 0 -260 45 0 45 0 0 -55 0 -55 -85 0 -85 0 0 589 c0 323 -3 616
-6 650 -8 70 -12 67 82 50z m-3252 -21 c13 -19 16 -62 16 -264 0 -133 -3 -255
-6 -271 -4 -22 -17 -37 -45 -52 -21 -12 -39 -24 -39 -27 0 -3 16 -12 35 -20
21 -8 40 -25 45 -40 6 -14 10 -137 10 -273 0 -321 12 -301 -176 -301 l-134 0
0 615 0 615 23 5 c94 22 159 33 204 34 43 1 55 -3 67 -21z m4393 -15 c-3 -10
-5 -4 -5 12 0 17 2 24 5 18 2 -7 2 -21 0 -30z m40 -10 c-3 -10 -5 -4 -5 12 0
17 2 24 5 18 2 -7 2 -21 0 -30z m-906 -9 c101 -23 99 -16 99 -282 0 -236 -7
-277 -48 -303 -19 -12 -19 -13 9 -36 16 -14 31 -38 34 -56 3 -18 6 -150 7
-295 l3 -263 -35 3 -35 3 -3 280 c-2 208 -5 281 -15 287 -36 23 -37 15 -37
-282 l0 -290 -35 0 -35 0 0 625 c0 431 3 625 11 625 5 0 41 -7 80 -16z m-3921
-24 c20 -20 20 -33 20 -605 l0 -585 -48 0 -49 0 -6 98 c-4 53 -7 168 -7 255
l0 157 -30 0 -30 0 0 -255 0 -255 -50 0 -50 0 0 555 c0 377 3 562 11 578 29
63 193 103 239 57z m4245 -43 c36 -30 44 -79 45 -264 l0 -153 -35 0 -35 0 0
153 c0 149 -7 186 -29 173 -7 -5 -11 -56 -11 -151 l0 -143 55 -142 55 -142 0
-201 c0 -213 -8 -273 -36 -294 -26 -19 -88 -16 -115 6 -24 19 -24 21 -27 250
l-3 231 35 0 36 0 2 -192 c3 -164 5 -193 18 -193 13 0 15 27 18 175 l2 176
-55 162 -55 161 0 183 c0 213 5 228 70 228 26 0 48 -8 65 -23z m185 -598 l0
-569 -30 0 -30 0 0 573 0 574 30 -5 30 -4 0 -569z m-2702 546 c37 -31 75 -106
69 -137 -4 -20 -4 -20 -6 5 -1 31 -19 35 -43 10 -9 -10 -33 -31 -54 -48 -37
-29 -37 -30 -13 -36 21 -6 20 -7 -8 -8 -29 -1 -33 -5 -33 -27 0 -26 1 -26 65
-22 36 2 65 0 65 -4 0 -4 -29 -8 -65 -8 l-65 0 0 -60 c0 -41 4 -60 13 -61 10
0 10 -2 0 -6 -8 -3 -13 -25 -13 -60 l0 -55 65 4 c36 2 65 0 65 -4 0 -4 -29 -8
-65 -8 l-65 0 0 -56 0 -55 63 2 c62 2 68 0 66 -23 0 -10 -2 -10 -6 0 -3 8 -26
12 -64 12 l-59 0 0 -60 c0 -55 2 -60 23 -61 l22 -2 -22 -4 c-21 -4 -23 -10
-23 -59 l0 -54 83 -2 82 -2 -82 -3 -83 -4 0 -35 0 -34 80 3 c44 2 80 -1 80 -5
0 -8 -52 -11 -122 -8 l-38 2 0 -61 0 -60 83 -4 c45 -1 6 -3 -88 -3 -93 0 -133
2 -87 3 l82 4 0 60 0 60 -80 -3 c-49 -2 -80 1 -80 7 0 6 31 9 80 7 l80 -4 0
37 0 37 -45 -3 c-24 -2 -47 0 -51 4 -4 4 16 7 44 7 l52 0 0 56 0 55 -67 -2
c-38 -1 -68 1 -68 6 0 5 30 7 68 6 l67 -2 0 60 c0 56 -2 61 -22 62 l-23 2 23
4 c20 4 22 10 22 59 0 44 -3 54 -17 55 -17 1 -17 2 0 6 13 4 17 15 17 59 l0
55 -80 -7 c-45 -3 -80 -3 -80 2 0 5 19 9 42 10 24 1 60 2 81 2 l37 2 0 56 0
56 -45 -4 c-25 -2 -45 0 -45 4 0 5 20 8 45 8 40 0 45 2 45 23 0 13 -3 27 -7
31 -11 10 -11 56 -1 50 4 -3 8 6 8 20 0 29 -20 36 -21 9 0 -11 -3 -13 -6 -5
-2 6 -9 10 -14 7 -5 -4 -6 1 -3 9 3 9 9 15 12 14 24 -3 32 6 32 32 0 34 -7 37
-36 15 -19 -14 -44 -21 -31 -9 3 4 1 16 -5 27 -11 20 -11 20 -35 -9 -15 -17
-21 -21 -14 -8 5 11 28 37 51 57 35 32 47 37 89 37 38 0 56 -6 79 -25z m2842
-5 c25 -6 55 -12 68 -15 19 -5 22 -12 22 -51 0 -43 -1 -45 -27 -42 l-28 3 -3
-502 -2 -503 -23 0 -24 0 -6 353 c-4 193 -7 423 -7 509 l0 158 -25 6 c-22 5
-25 12 -25 50 0 49 3 51 80 34z m181 -95 c4 -33 13 -132 20 -220 15 -192 23
-179 39 66 7 98 16 182 19 188 4 5 17 8 29 4 20 -5 22 -10 17 -52 -34 -288
-65 -678 -65 -827 l0 -174 -25 0 -25 0 0 198 c0 173 -37 651 -65 845 -5 37 -5
38 22 35 26 -3 28 -7 34 -63z m-3246 -26 c4 -6 13 -8 19 -6 7 3 13 -1 13 -9 0
-8 -5 -12 -11 -9 -6 3 -19 8 -28 11 -10 4 -18 10 -18 15 0 12 17 11 25 -2z
m-28 -56 c-3 -10 -5 -4 -5 12 0 17 2 24 5 18 2 -7 2 -21 0 -30z m110 7 c14
-11 22 -20 17 -20 -12 1 -61 39 -51 40 5 0 20 -9 34 -20z m210 -27 c-2 -2 -21
-5 -41 -7 -43 -3 -60 11 -19 16 30 4 67 -2 60 -9z m-197 -16 c-3 -3 -29 -8
-58 -11 -30 -3 -58 -9 -63 -12 -5 -3 -9 1 -9 8 0 10 19 14 67 16 38 2 66 1 63
-1z m-85 -75 c-8 -9 -45 -10 -45 -1 0 9 32 17 43 11 5 -2 6 -7 2 -10z m250
-102 c-22 -3 -44 -4 -50 -1 -15 8 47 18 70 12 14 -4 8 -7 -20 -11z m-233 -127
c8 3 21 1 29 -4 10 -6 6 -9 -16 -10 -16 0 -40 -2 -52 -3 -13 -2 -23 1 -23 6 0
4 7 8 15 8 8 0 15 6 15 13 0 8 3 8 9 -2 5 -8 15 -11 23 -8z m13 -126 c17 -2 5
-4 -25 -4 -30 -1 -47 1 -37 4 9 2 17 10 17 16 0 9 2 9 8 0 4 -6 21 -13 37 -16z
m255 -115 c0 -10 -36 -9 -46 1 -4 4 5 7 19 7 15 0 27 -4 27 -8z m-293 -144
c-3 -8 -6 -5 -6 6 -1 11 2 17 5 13 3 -3 4 -12 1 -19z m742 -326 l53 -32 26 19
c77 54 -25 51 1631 51 839 0 1535 -3 1546 -6 16 -4 34 -40 77 -157 32 -83 55
-154 52 -157 -7 -7 -6671 -7 -6678 1 -3 3 25 76 62 162 l67 157 1556 -2 1556
-3 52 -33z m3491 -372 c0 -20 -7 -20 -3440 -20 -3433 0 -3440 0 -3440 20 0 20
7 20 3440 20 3433 0 3440 0 3440 -20z"/>
<path d="M2953 4538 c-6 -7 -10 -41 -11 -75 0 -52 3 -63 19 -68 40 -13 80 35
61 72 -5 10 -7 33 -5 51 5 30 3 32 -25 32 -16 0 -34 -6 -39 -12z m37 -20 c0
-16 -3 -19 -11 -11 -6 6 -8 16 -5 22 11 17 16 13 16 -11z m0 -89 c0 -10 -4
-19 -10 -19 -5 0 -10 12 -10 26 0 14 4 23 10 19 6 -3 10 -15 10 -26z"/>
<path d="M2850 4521 c-14 -27 -13 -36 3 -22 32 26 36 -27 6 -76 -12 -19 -19
-37 -16 -40 4 -3 22 -2 42 1 26 5 35 12 35 27 0 16 -4 19 -22 14 l-21 -7 22
36 c29 46 22 86 -14 86 -14 0 -29 -8 -35 -19z"/>
<path d="M2752 4508 c-7 -7 -12 -27 -12 -46 0 -25 5 -35 20 -39 25 -7 25 -11
-2 -40 -16 -17 -18 -23 -7 -23 23 0 68 52 75 87 3 17 1 40 -5 52 -13 23 -50
28 -69 9z m38 -39 c0 -18 -4 -28 -10 -24 -5 3 -10 20 -10 36 0 18 4 28 10 24
6 -3 10 -20 10 -36z"/>
<path d="M2676 4497 c-14 -10 -18 -28 -20 -80 l-1 -67 34 0 c26 0 31 3 23 13
-6 7 -12 43 -14 80 -3 64 -4 67 -22 54z"/>
<path d="M1842 4338 c-9 -9 -12 -78 -12 -270 l0 -257 33 6 c17 3 36 9 40 13 4
4 4 121 0 261 -8 244 -9 254 -28 257 -11 1 -26 -3 -33 -10z"/>
<path d="M1420 4041 c0 -257 0 -259 48 -225 22 15 22 19 21 212 -1 108 -4 208
-8 222 -5 18 -15 26 -34 28 l-27 3 0 -240z"/>
<path d="M1420 3470 l0 -230 25 0 c41 0 46 34 43 248 -3 203 -5 211 -50 212
-17 0 -18 -18 -18 -230z"/>
<path d="M5100 4019 l0 -220 23 3 c22 3 22 4 25 207 2 205 -1 231 -34 231 -12
0 -14 -40 -14 -221z"/>
<path d="M1063 4208 c-4 -7 -9 -115 -11 -240 l-4 -228 31 0 31 0 -2 237 c-3
212 -5 238 -20 241 -9 2 -20 -3 -25 -10z"/>
<path d="M2790 4227 c-27 -14 -35 -34 -22 -55 16 -24 62 6 62 40 0 31 -4 33
-40 15z"/>
<path d="M2843 4143 c1 -60 6 -98 12 -98 6 0 29 15 50 33 l40 33 -28 24 c-22
20 -26 29 -18 42 9 16 10 16 11 -3 0 -11 9 -29 20 -39 18 -16 22 -17 35 -4 13
13 12 19 -11 53 -18 26 -29 34 -34 26 -5 -8 -9 -5 -13 9 -4 16 -13 21 -35 21
l-31 0 2 -97z m44 -43 c10 -13 8 -16 -8 -16 -19 0 -26 16 -12 29 3 4 7 6 7 5
1 -2 7 -10 13 -18z"/>
<path d="M743 2946 c2 -6 12 -11 22 -11 10 0 20 5 22 11 2 7 -7 12 -22 12 -15
0 -24 -5 -22 -12z"/>
<path d="M331 2868 c-12 -34 -21 -66 -21 -70 0 -14 28 -9 34 7 3 8 15 15 26
15 11 0 23 -7 26 -15 6 -15 34 -21 34 -7 0 4 -10 35 -22 70 -29 83 -49 83 -77
0z m49 -8 c0 -5 -4 -10 -10 -10 -5 0 -10 5 -10 10 0 6 5 10 10 10 6 0 10 -4
10 -10z"/>
<path d="M450 2860 l0 -70 45 0 c43 0 65 16 65 49 0 18 -31 41 -56 41 -13 0
-24 5 -24 10 0 6 16 10 35 10 24 0 35 5 35 15 0 11 -12 15 -50 15 l-50 0 0
-70z m68 -27 c2 -8 -5 -13 -17 -13 -12 0 -21 6 -21 16 0 18 31 15 38 -3z"/>
<path d="M592 2868 c-12 -35 -22 -66 -22 -70 0 -14 28 -8 34 7 3 8 15 15 26
15 11 0 23 -7 26 -15 8 -19 34 -20 34 -1 0 8 -10 39 -21 70 -29 75 -48 74 -77
-6z m48 -8 c0 -5 -5 -10 -11 -10 -5 0 -7 5 -4 10 3 6 8 10 11 10 2 0 4 -4 4
-10z"/>
<path d="M710 2860 c0 -80 16 -93 49 -39 l19 32 4 -29 c2 -18 10 -30 21 -32
15 -3 17 5 17 67 0 62 -2 71 -18 71 -10 0 -27 -16 -40 -37 l-22 -38 0 38 c0
26 -4 37 -15 37 -12 0 -15 -14 -15 -70z"/>
<path d="M902 2868 c-12 -35 -22 -66 -22 -70 0 -14 28 -8 34 7 3 8 15 15 26
15 11 0 23 -7 26 -15 7 -18 34 -20 34 -4 0 7 -10 38 -21 70 -29 79 -47 78 -77
-3z m48 -8 c0 -5 -4 -10 -10 -10 -5 0 -10 5 -10 10 0 6 5 10 10 10 6 0 10 -4
10 -10z"/>
<path d="M1010 2915 c0 -8 9 -15 20 -15 18 0 20 -7 20 -55 0 -42 3 -55 15 -55
12 0 15 13 15 55 0 48 2 55 20 55 11 0 20 7 20 15 0 12 -13 15 -55 15 -42 0
-55 -3 -55 -15z"/>
<path d="M1130 2860 l0 -70 44 0 c49 0 69 17 64 52 -2 16 -13 26 -35 33 -25 7
-33 15 -33 32 0 16 -6 23 -20 23 -18 0 -20 -7 -20 -70z m78 -27 c2 -8 -5 -13
-17 -13 -12 0 -21 6 -21 16 0 18 31 15 38 -3z"/>
<path d="M1250 2860 c0 -56 3 -70 15 -70 12 0 15 14 15 70 0 56 -3 70 -15 70
-12 0 -15 -14 -15 -70z"/>
<path d="M1310 2860 c0 -56 3 -70 15 -70 10 0 15 10 15 30 0 23 4 30 20 30 16
0 20 -7 20 -30 0 -20 5 -30 15 -30 12 0 15 14 15 70 0 56 -3 70 -15 70 -9 0
-15 -9 -15 -25 0 -18 -5 -25 -20 -25 -15 0 -20 7 -20 25 0 16 -6 25 -15 25
-12 0 -15 -14 -15 -70z"/>
<path d="M1450 2895 c0 -20 -7 -51 -15 -71 -14 -34 -11 -64 6 -64 5 0 9 7 9
15 0 22 59 20 76 -2 20 -29 24 -12 17 75 l-6 82 -43 0 c-44 0 -44 0 -44 -35z
m60 -35 c0 -34 -3 -40 -21 -40 -15 0 -19 4 -15 16 3 9 6 27 6 40 0 15 6 24 15
24 11 0 15 -11 15 -40z"/>
<path d="M1584 2873 c-10 -32 -20 -64 -22 -70 -5 -18 25 -16 32 2 3 8 15 15
26 15 11 0 23 -7 26 -15 7 -18 34 -20 34 -4 0 7 -10 38 -21 70 -29 78 -49 78
-75 2z m46 -13 c0 -5 -4 -10 -10 -10 -5 0 -10 5 -10 10 0 6 5 10 10 10 6 0 10
-4 10 -10z"/>
<path d="M1698 2895 c-6 -55 2 -105 18 -105 9 0 14 11 14 30 0 26 4 30 26 30
31 0 28 23 -4 28 -33 5 -26 22 8 22 20 0 30 5 30 15 0 11 -12 15 -44 15 -43 0
-44 -1 -48 -35z"/>
<path d="M1810 2860 l0 -70 44 0 c49 0 69 17 64 52 -2 16 -13 26 -35 33 -25 7
-33 15 -33 32 0 16 -6 23 -20 23 -18 0 -20 -7 -20 -70z m78 -27 c2 -8 -5 -13
-17 -13 -12 0 -21 6 -21 16 0 18 31 15 38 -3z"/>
<path d="M1930 2860 c0 -56 3 -70 15 -70 12 0 15 14 15 70 0 56 -3 70 -15 70
-12 0 -15 -14 -15 -70z"/>
<path d="M2040 2860 c0 -54 3 -70 14 -70 8 0 16 12 18 27 3 26 4 25 23 -15 11
-23 23 -42 28 -42 13 0 7 55 -9 78 -15 22 -11 62 7 62 5 0 9 7 9 16 0 24 -33
13 -47 -16 l-13 -25 0 28 c0 17 -5 27 -15 27 -12 0 -15 -14 -15 -70z"/>
<path d="M2179 2903 c-17 -43 -39 -105 -39 -109 0 -11 32 -2 36 11 4 8 16 15
29 15 13 0 25 -7 29 -15 8 -22 39 -19 32 3 -38 117 -66 148 -87 95z m28 -45
c-3 -8 -6 -5 -6 6 -1 11 2 17 5 13 3 -3 4 -12 1 -19z"/>
<path d="M2292 2918 c-21 -21 -13 -30 18 -23 33 7 41 -7 13 -25 -17 -10 -17
-10 0 -20 28 -18 20 -32 -14 -25 -26 6 -30 4 -27 -12 2 -13 14 -19 41 -21 31
-3 39 0 46 20 5 13 5 30 0 40 -5 9 -6 24 -3 32 14 35 -46 62 -74 34z"/>
<path d="M2412 2868 c-12 -35 -22 -66 -22 -70 0 -14 28 -8 34 7 3 8 15 15 26
15 11 0 23 -7 26 -15 6 -16 34 -21 34 -7 0 4 -9 36 -21 70 -28 83 -48 83 -77
0z m48 -8 c0 -5 -4 -10 -10 -10 -5 0 -10 5 -10 10 0 6 5 10 10 10 6 0 10 -4
10 -10z"/>
<path d="M2530 2860 c0 -54 3 -70 14 -70 8 0 16 12 19 28 3 26 4 26 23 -15 22
-50 44 -56 44 -13 0 17 -4 30 -8 30 -5 0 -14 11 -20 24 -9 20 -7 29 8 49 11
13 16 27 13 31 -14 13 -33 5 -47 -21 l-15 -28 -1 28 c0 17 -5 27 -15 27 -12 0
-15 -14 -15 -70z"/>
<path d="M2700 2891 c14 -29 16 -41 7 -45 -9 -3 -7 -9 6 -19 9 -8 17 -19 17
-26 0 -6 7 -11 15 -11 8 0 15 7 15 15 0 8 5 15 10 15 6 0 10 7 10 15 0 8 -5
15 -11 15 -6 0 -1 15 10 34 12 18 21 36 21 40 0 14 -30 4 -44 -15 l-14 -21
-14 21 c-7 11 -21 21 -31 21 -16 0 -16 -2 3 -39z"/>
<path d="M2825 2875 c-3 -30 -11 -57 -16 -60 -18 -11 -9 -26 14 -23 18 2 24
12 31 56 12 68 26 67 26 -3 0 -48 2 -55 20 -55 18 0 20 7 20 70 l0 70 -44 0
-44 0 -7 -55z"/>
<path d="M2930 2915 c0 -8 9 -15 20 -15 18 0 20 -7 20 -55 0 -42 3 -55 15 -55
11 0 15 13 15 54 0 48 2 54 23 58 49 9 57 0 57 -58 0 -41 4 -54 15 -54 12 0
15 13 15 55 0 48 2 55 20 55 11 0 20 7 20 15 0 11 -20 14 -110 14 -90 0 -110
-2 -110 -14z"/>
<path d="M3170 2860 l0 -70 45 0 c39 0 47 4 57 25 9 21 8 28 -7 45 -10 11 -29
20 -42 20 -18 0 -23 5 -23 25 0 16 -6 25 -15 25 -12 0 -15 -14 -15 -70z m68
-27 c2 -8 -5 -13 -17 -13 -12 0 -21 6 -21 16 0 18 31 15 38 -3z"/>
<path d="M3290 2860 c0 -56 3 -70 15 -70 12 0 15 14 15 70 0 56 -3 70 -15 70
-12 0 -15 -14 -15 -70z"/>
<path d="M3340 2860 c0 -56 3 -70 15 -70 8 0 15 9 15 20 0 31 16 24 34 -15 9
-19 21 -35 26 -35 15 0 11 53 -5 74 -19 25 -19 50 0 66 19 16 19 30 1 30 -8 0
-24 -12 -35 -27 l-20 -28 -1 28 c0 17 -5 27 -15 27 -12 0 -15 -14 -15 -70z"/>
<path d="M3554 2916 c-3 -7 -4 -38 -2 -67 2 -42 7 -55 21 -57 14 -3 17 5 17
52 0 49 2 56 20 56 18 0 20 -7 20 -55 0 -42 3 -55 15 -55 12 0 15 14 15 70 l0
70 -50 0 c-34 0 -52 -5 -56 -14z"/>
<path d="M3684 2917 c-3 -8 -4 -39 -2 -68 l3 -54 50 0 c38 0 52 -4 57 -17 9
-22 28 -24 28 -3 0 10 11 15 35 15 24 0 35 -5 35 -15 0 -8 7 -15 16 -15 14 0
16 8 10 46 -3 26 -6 64 -6 85 l0 39 -44 0 -44 0 -7 -55 c-3 -30 -9 -56 -13
-58 -4 -3 -24 -2 -44 0 -47 6 -53 33 -8 33 20 0 30 5 30 15 0 10 -10 15 -30
15 -40 0 -38 18 3 22 49 5 38 23 -16 26 -34 2 -49 -1 -53 -11z m196 -57 c0
-34 -3 -40 -21 -40 -17 0 -20 4 -15 23 3 12 6 30 6 40 0 9 7 17 15 17 11 0 15
-11 15 -40z"/>
<path d="M3951 2868 c-12 -34 -21 -66 -21 -70 0 -14 28 -9 34 7 3 8 15 15 26
15 11 0 23 -7 26 -15 6 -15 34 -21 34 -7 0 4 -10 35 -22 70 -29 83 -49 83 -77
0z m44 -8 c3 -5 1 -10 -4 -10 -6 0 -11 5 -11 10 0 6 2 10 4 10 3 0 8 -4 11
-10z"/>
<path d="M4070 2860 c0 -56 3 -70 15 -70 12 0 15 13 15 55 0 54 0 55 30 55 20
0 30 5 30 15 0 11 -12 15 -45 15 l-45 0 0 -70z"/>
<path d="M4187 2912 c-23 -25 -22 -85 1 -105 44 -40 102 -8 102 55 0 60 -65
92 -103 50z m68 -52 c0 -28 -4 -36 -22 -38 -24 -4 -38 25 -28 59 5 14 14 19
28 17 18 -2 22 -10 22 -38z"/>
<path d="M4320 2860 c0 -56 3 -70 15 -70 12 0 15 13 15 55 0 54 0 55 30 55 20
0 30 5 30 15 0 11 -12 15 -45 15 l-45 0 0 -70z"/>
<path d="M4420 2860 c0 -80 14 -91 49 -37 l21 32 0 -32 c0 -23 5 -33 15 -33
12 0 15 14 15 70 0 82 -17 93 -49 33 l-20 -38 -1 38 c0 26 -4 37 -15 37 -12 0
-15 -14 -15 -70z"/>
<path d="M4550 2860 c0 -54 3 -70 14 -70 8 0 16 12 18 28 l4 27 14 -27 c10
-22 20 -28 47 -28 21 0 36 6 39 15 8 20 50 19 58 -1 4 -11 17 -14 43 -12 l38
3 3 53 c2 37 7 52 18 52 10 0 14 -14 14 -56 0 -47 3 -55 18 -52 14 3 17 14 17
68 l0 65 -47 3 -48 3 0 -51 c0 -28 -6 -57 -12 -64 -11 -12 -17 -3 -34 47 -27
80 -50 84 -77 12 -9 -27 -20 -57 -23 -65 -4 -11 -11 -5 -23 19 -18 34 -18 71
0 71 5 0 9 7 9 15 0 25 -28 17 -44 -12 l-15 -28 -1 28 c0 17 -5 27 -15 27 -12
0 -15 -14 -15 -70z m170 5 c0 -8 -4 -15 -10 -15 -5 0 -7 7 -4 15 4 8 8 15 10
15 2 0 4 -7 4 -15z"/>
<path d="M4920 2860 l0 -70 43 0 c24 0 48 5 55 12 28 28 1 78 -44 78 -19 0
-24 5 -24 25 0 16 -6 25 -15 25 -12 0 -15 -14 -15 -70z m75 -25 c0 -5 -10 -11
-22 -13 -16 -2 -23 2 -23 13 0 11 7 15 23 13 12 -2 22 -7 22 -13z"/>
<path d="M5040 2860 c0 -56 3 -70 15 -70 12 0 15 14 15 70 0 56 -3 70 -15 70
-12 0 -15 -14 -15 -70z"/>
<path d="M5094 2916 c-3 -7 -4 -38 -2 -67 2 -41 7 -55 20 -57 12 -2 17 5 20
25 3 26 4 26 23 -15 11 -23 23 -42 27 -42 18 0 17 24 -3 65 -21 41 -21 45 -6
69 21 31 21 36 3 36 -7 0 -21 -10 -29 -22 l-16 -23 0 23 c-1 24 -28 31 -37 8z"/>
<path d="M5250 2926 c0 -2 10 -25 21 -51 19 -43 20 -49 5 -57 -22 -12 -20 -28
3 -28 23 0 33 13 56 70 9 25 19 51 22 58 3 6 -2 12 -11 12 -10 0 -22 -13 -28
-31 l-11 -31 -13 31 c-7 17 -20 31 -29 31 -8 0 -15 -2 -15 -4z"/>
<path d="M5370 2860 c0 -63 2 -71 18 -68 10 2 18 14 20 31 2 19 9 27 23 27 14
0 19 -7 19 -30 0 -20 5 -30 15 -30 12 0 15 14 15 70 0 56 -3 70 -15 70 -9 0
-15 -9 -15 -25 0 -33 -37 -35 -42 -3 -2 13 -11 24 -20 26 -16 3 -18 -5 -18
-68z"/>
<path d="M5510 2861 c0 -83 14 -92 48 -33 l22 37 0 -37 c0 -27 4 -38 15 -38
12 0 15 14 15 70 0 79 -16 93 -47 39 l-18 -30 -5 27 c-3 15 -11 29 -17 32 -10
3 -13 -15 -13 -67z"/>
<path d="M5640 2859 l0 -70 48 3 47 3 1 55 c2 67 -8 80 -57 80 l-39 0 0 -71z
m70 31 c0 -5 -9 -10 -20 -10 -11 0 -20 5 -20 10 0 6 9 10 20 10 11 0 20 -4 20
-10z m-2 -57 c2 -8 -5 -13 -17 -13 -12 0 -21 6 -21 16 0 18 31 15 38 -3z"/>
<path d="M5770 2860 l0 -70 50 0 c38 0 50 4 50 15 0 10 -11 15 -35 15 -24 0
-35 5 -35 15 0 10 10 15 30 15 20 0 30 5 30 15 0 10 -10 15 -30 15 -16 0 -30
5 -30 10 0 6 16 10 35 10 24 0 35 5 35 15 0 11 -12 15 -50 15 l-50 0 0 -70z"/>
<path d="M5890 2860 c0 -56 3 -70 15 -70 9 0 15 9 15 25 0 19 5 25 23 25 29 0
47 18 47 45 0 31 -19 45 -62 45 l-38 0 0 -70z m63 25 c1 -5 -6 -11 -15 -13
-11 -2 -18 3 -18 13 0 17 30 18 33 0z"/>
<path d="M6027 2912 c-38 -42 -11 -122 41 -122 21 0 52 24 52 41 0 13 -24 11
-37 -2 -19 -19 -43 -2 -43 31 0 35 22 49 46 30 21 -19 43 3 24 25 -17 21 -63
19 -83 -3z"/>
<path d="M6140 2860 c0 -60 2 -70 18 -70 9 0 27 17 39 38 l22 37 1 -37 c0 -27
4 -38 15 -38 12 0 15 14 15 70 0 61 -2 70 -18 70 -11 0 -26 -15 -37 -37 l-20
-38 -3 38 c-2 24 -8 37 -18 37 -11 0 -14 -16 -14 -70z"/>
<path d="M6260 2915 c0 -8 9 -15 20 -15 18 0 20 -7 20 -55 0 -42 3 -55 15 -55
12 0 15 13 15 55 0 48 2 55 20 55 11 0 20 7 20 15 0 12 -13 15 -55 15 -42 0
-55 -3 -55 -15z"/>
<path d="M6380 2860 l0 -70 55 0 c42 0 55 3 55 15 0 10 -11 15 -35 15 -24 0
-35 5 -35 15 0 10 10 15 30 15 20 0 30 5 30 15 0 10 -10 15 -30 15 -16 0 -30
5 -30 10 0 6 14 10 30 10 20 0 30 5 30 15 0 11 -12 15 -50 15 l-50 0 0 -70z"/>
<path d="M6500 2915 c0 -8 7 -15 15 -15 10 0 15 -10 15 -32 0 -48 10 -78 26
-78 10 0 14 15 14 55 0 42 3 55 15 55 8 0 15 7 15 15 0 11 -12 15 -50 15 -38
0 -50 -4 -50 -15z"/>
<path d="M6620 2860 c0 -56 3 -70 15 -70 12 0 15 14 15 70 0 56 -3 70 -15 70
-12 0 -15 -14 -15 -70z"/>
</g>
</svg>
